<svg xmlns="http://www.w3.org/2000/svg" xmlns:xlink="http://www.w3.org/1999/xlink" id="_&#x56FE;&#x5C42;_1" x="0px" y="0px" viewBox="0 0 800 104.3" style="enable-background:new 0 0 800 104.3;" xml:space="preserve"><style type="text/css">	.st0{fill:#FFFFFF;}	.st1{fill:url(#SVGID_1_);}	.st2{fill:url(#SVGID_00000088831852624235607200000014750154235182661769_);}	.st3{fill:url(#SVGID_00000096765348261943703990000014145893098147698851_);}	.st4{fill:url(#SVGID_00000154424497406475366720000013522723796425125535_);}</style><g>	<path class="st0" d="M328.2,100.2L328.2,100.2c-0.7,0-1.3-0.3-1.7-0.7c-0.4-0.4-0.7-1.1-0.7-1.7V52.3V6.8c0-0.7,0.3-1.3,0.7-1.7   c0.4-0.4,1.1-0.7,1.7-0.7l0,0c0.7,0,1.3,0.3,1.7,0.7c0.4,0.4,0.7,1.1,0.7,1.7v45.4v45.4c0,0.7-0.3,1.3-0.7,1.7   C329.5,99.9,328.9,100.2,328.2,100.2z"></path>	<g>		<g>			<path class="st0" d="M444.8,100.3h-26V86.8h11.8V64.1h-7.2c-6.6,14.2-13.3,25.9-20.1,35.1H386c3.4-4.8,7.1-10.3,11-16.5     s7.5-12.4,10.7-18.6h-10.4c-2.7,5.1-5.9,10.6-9.8,16.6c-3.9,6-8.2,11.9-13,17.6h-17.7c4.3-4.9,8.7-10.4,13.2-16.5     c4.5-6.1,8.5-12,12-17.7h-8.6c-1.3,2.2-3,4.6-5,7.1h-16.8c2.7-3.3,5.5-7.1,8.4-11.4s5.2-8.6,7.2-12.9H363l0,0V6.4l0,0h81.4l0,0     v40.5h-62.2l-1.8,4h64.3L444.8,100.3L444.8,100.3z M430.9,21.4v-4.2h-54.2v4.2H430.9z M430.9,36.1v-4.2h-54.2v4.2H430.9z"></path>			<path class="st0" d="M570,39.4c-2.5,1.5-4.6,2.7-6.1,3.5V27.5c4.6-2.5,8.3-4.4,11.1-8.1c2.8-3.7,7.4-9,9.5-14H601     c2,4.9,5.6,9.2,8.4,12.9c2.8,3.7,7.6,6.7,12.2,9.2v15.4c-1.8-0.9-4-2.2-6.6-3.9v36.6h-24.2v-13h11.9V49.4h-18.8v36.3h32.6v13.6     H570L570,39.4L570,39.4z M610.6,35.9c-5.9-4.6-13-10.2-16.8-16.8h-2.2c-3.8,6.5-10.9,12.1-16.8,16.8H610.6L610.6,35.9z      M625.1,19.1h12.3v59.1h-12.3C625.1,78.2,625.1,19.1,625.1,19.1z M634,87.7h11V5.4h13.2v94.9H634L634,87.7L634,87.7z"></path>			<path class="st0" d="M672.5,6.7v93.6H684V73.8h8.3v26.6h12V6.7H672.5z M692.4,60.8h-7.8V47h7.8V60.8z M692.4,34h-7.8V20.2h7.8V34     z"></path>			<rect x="710.6" y="83.9" class="st0" width="36.8" height="11.7"></rect>			<polygon class="st0" points="499.4,9.2 553.8,9.2 553.8,21.9 485.2,21.9 485.2,5.5 499.4,5.5    "></polygon>			<path class="st0" d="M756.1,60.5c2.7,2.2,6,4.1,9.7,5.8V52.9c-4.6-2.5-8.1-5.9-10.3-10.3h10.3V30.3h-23.3v-5.6h23.3V12.6h-6.2     V6.7h-12.3v5.9h-4.7V4.4h-12.9v8.2h-4.9V6.7h-12.2v5.9h-6.3v12.1h23.4v5.6h-23.4v12.2h9.3c-2.1,4.1-5.2,7.3-9.3,9.7v13.5     c3.7-1.7,7.1-3.8,10-6.4h0.4l0,20.1h35.4v20.8h13.5V68.3H756L756.1,60.5L756.1,60.5z M743.9,68.3h-15v-8.9h15V68.3z M725.3,48.2     c1-1.6,1.9-3.5,2.6-5.7h15.2c0.8,2.2,1.7,4.2,2.5,5.8L725.3,48.2L725.3,48.2z"></path>			<path class="st0" d="M548.9,56.7V26.9h-58.8v29.7h-6.2v12.4h6.2v30.5h58.8V69.1h7.2V56.7H548.9z M536.7,87.6h-34.8V69.1h11.3v14     h11.5v-14h12V87.6z M536.7,56.7h-11.8V43.4h-11.7v13.3h-11.3V38.8h34.8C536.7,38.8,536.7,56.7,536.7,56.7z"></path>			<g>				<path class="st0" d="M474,62.8c5.5-8.9,8.6-19.4,8.6-30.6c0-0.9,0-1.8-0.1-2.8h-14.2c0.1,0.9,0.1,1.8,0.1,2.8      c0,10.5-3.7,20.2-9.8,27.8l9.7,4.3c0,0.4,0,0.8,0,1.2c0,10.5-3.7,20.2-9.8,27.8l13.3,5.9c6.7-9.5,10.6-21.1,10.6-33.7      c0-0.9,0-1.8-0.1-2.8H474L474,62.8z"></path>				<rect x="466.8" y="8.9" class="st0" width="14.1" height="14.1"></rect>			</g>		</g>		<path class="st0" d="M800,17.2c0,7.8-5.3,12.9-13.1,12.9c-7.8,0-13.3-5.1-13.3-12.9s5.3-12.8,13.3-12.8S800,9.5,800,17.2z     M797.3,17.2c0-6.4-4.2-10.7-10.4-10.7s-10.5,4.2-10.5,10.7s4.2,10.7,10.5,10.7C793.1,27.8,797.3,23.6,797.3,17.2z M789.8,18.7    l3.3,5.2h-3.8l-2.8-4.6h-2v4.6h-3.3V10.5h6c3.1,0,4.9,1.8,4.9,4.5C792.1,16.7,791.2,18,789.8,18.7L789.8,18.7z M784.5,16.7h2.1    c1.3,0,2.2-0.7,2.2-1.7c0-1-0.7-1.7-1.8-1.7h-2.4L784.5,16.7L784.5,16.7z"></path>	</g>	<g>		<g>							<linearGradient id="SVGID_1_" gradientUnits="userSpaceOnUse" x1="2378.3101" y1="5055.1782" x2="2441.2551" y2="5055.1782" gradientTransform="matrix(0.7071 -0.7071 -0.7071 -0.7071 1919.0715 5345.8857)">				<stop offset="0" style="stop-color:#0088FF"></stop>				<stop offset="0.25" style="stop-color:#00AAF5"></stop>				<stop offset="0.58" style="stop-color:#00D1EA"></stop>				<stop offset="0.84" style="stop-color:#00EAE3"></stop>				<stop offset="1" style="stop-color:#00F3E1"></stop>			</linearGradient>			<path class="st1" d="M35.7,95.5V67.4V39.3c0-2.4,1-4.6,2.6-6.2c1.6-1.6,3.8-2.6,6.2-2.6h4h4c2.4,0,4.6,1,6.2,2.6     c1.6,1.6,2.6,3.8,2.6,6.2v28.1v28.1c0,2.4-1,4.6-2.6,6.2c-1.6,1.6-3.8,2.6-6.2,2.6h-4h-4c-2.4,0-4.6-1-6.2-2.6     C36.7,100.1,35.7,97.9,35.7,95.5z"></path>							<linearGradient id="SVGID_00000004508444255623655790000013436937254169311362_" gradientUnits="userSpaceOnUse" x1="71.2507" y1="14.9205" x2="97.211" y2="14.9205" gradientTransform="matrix(1 0 0 -1 0 106.2059)">				<stop offset="0" style="stop-color:#0088FF"></stop>				<stop offset="0.25" style="stop-color:#00AAF5"></stop>				<stop offset="0.58" style="stop-color:#00D1EA"></stop>				<stop offset="0.84" style="stop-color:#00EAE3"></stop>				<stop offset="1" style="stop-color:#00F3E1"></stop>			</linearGradient>			<path style="fill:url(#SVGID_00000004508444255623655790000013436937254169311362_);" d="M93.4,82.1c-1.2-1.2-2.7-2.2-4.2-2.8     c-1.6-0.6-3.2-1-5-1c-1.7,0-3.4,0.3-5,1s-3,1.6-4.2,2.8c-1.2,1.2-2.2,2.7-2.8,4.2c-0.6,1.6-1,3.2-1,5s0.3,3.4,1,5     c0.6,1.6,1.6,3,2.8,4.2c1.2,1.2,2.7,2.2,4.2,2.8c1.6,0.6,3.2,1,5,1c1.7,0,3.4-0.3,5-1c1.6-0.6,3-1.6,4.2-2.8     c1.2-1.2,2.2-2.7,2.8-4.2c0.6-1.6,1-3.2,1-5s-0.3-3.4-1-5S94.6,83.3,93.4,82.1z"></path>							<linearGradient id="SVGID_00000145025089199900466390000013062543223102951326_" gradientUnits="userSpaceOnUse" x1="0" y1="74.7352" x2="62.9222" y2="74.7352" gradientTransform="matrix(1 0 0 -1 0 106.2059)">				<stop offset="0" style="stop-color:#0088FF"></stop>				<stop offset="0.25" style="stop-color:#00AAF5"></stop>				<stop offset="0.58" style="stop-color:#00D1EA"></stop>				<stop offset="0.84" style="stop-color:#00EAE3"></stop>				<stop offset="1" style="stop-color:#00F3E1"></stop>			</linearGradient>			<path style="fill:url(#SVGID_00000145025089199900466390000013062543223102951326_);" d="M42.3,60.4L22.4,40.5L2.6,20.6     c-1.7-1.7-2.6-4-2.6-6.2s0.9-4.5,2.6-6.2l2.8-2.8l2.8-2.8c1.7-1.7,4-2.6,6.2-2.6s4.5,0.9,6.2,2.6l19.9,19.9l19.9,19.9     c1.7,1.7,2.6,4,2.6,6.2c0,2.2-0.9,4.5-2.6,6.2l-2.8,2.8l-2.8,2.8c-1.7,1.7-4,2.6-6.2,2.6S44,62.1,42.3,60.4L42.3,60.4z"></path>							<linearGradient id="SVGID_00000067223040115949151420000010396914133322689450_" gradientUnits="userSpaceOnUse" x1="34.144" y1="74.7545" x2="97.0662" y2="74.7545" gradientTransform="matrix(1 0 0 -1 0 106.2059)">				<stop offset="0" style="stop-color:#0088FF"></stop>				<stop offset="0.25" style="stop-color:#00AAF5"></stop>				<stop offset="0.58" style="stop-color:#00D1EA"></stop>				<stop offset="0.84" style="stop-color:#00EAE3"></stop>				<stop offset="1" style="stop-color:#00F3E1"></stop>			</linearGradient>			<path style="fill:url(#SVGID_00000067223040115949151420000010396914133322689450_);" d="M36.7,42.3l19.9-19.9L76.4,2.6     c1.7-1.7,4-2.6,6.2-2.6s4.5,0.9,6.2,2.6l2.8,2.8l2.8,2.8c1.7,1.7,2.6,4,2.6,6.2s-0.9,4.5-2.6,6.2L74.6,40.5L54.8,60.3     c-1.7,1.7-4,2.6-6.2,2.6c-2.2,0-4.5-0.9-6.2-2.6l-2.8-2.8l-2.8-2.8c-1.7-1.7-2.6-4-2.6-6.2C34.1,46.3,35,44,36.7,42.3L36.7,42.3z     "></path>		</g>		<g>			<path class="st0" d="M142,30.9L126.3,5.4h10.5l12,20.6H142l12-20.6h10.3l-15.8,25.6H142L142,30.9z M140.8,46V26.7h9.2V46H140.8z"></path>			<path class="st0" d="M173.8,46.7c-3,0-5.7-0.6-8.1-1.9c-2.3-1.2-4.2-3-5.5-5.2c-1.3-2.2-2-4.8-2-7.6c0-2.8,0.7-5.2,2-7.5     c1.3-2.2,3.1-3.9,5.4-5.2c2.3-1.3,4.8-1.9,7.7-1.9s5.3,0.6,7.4,1.8s3.8,2.8,5,5c1.2,2.1,1.8,4.5,1.8,7.3c0,0.5,0,1.1-0.1,1.6     c-0.1,0.6-0.2,1.2-0.4,1.9L162.9,35v-6.1l20.3-0.1l-3.8,2.6c0-1.6-0.3-2.9-0.8-3.9c-0.5-1.1-1.1-1.9-2-2.4     c-0.9-0.6-2-0.9-3.3-0.9c-1.4,0-2.6,0.3-3.6,1c-1,0.7-1.8,1.6-2.4,2.7c-0.6,1.1-0.8,2.5-0.8,4.1s0.3,3,0.9,4.2     c0.6,1.2,1.4,2.1,2.5,2.7c1.1,0.6,2.4,0.9,3.9,0.9c1.3,0,2.6-0.2,3.7-0.7c1.1-0.5,2.1-1.2,2.9-2.2l4.9,4.8c-1.4,1.7-3,2.9-5,3.7     C178.3,46.2,176.2,46.6,173.8,46.7L173.8,46.7z"></path>			<path class="st0" d="M205.4,46.7c-3,0-5.7-0.6-8.1-1.9c-2.3-1.2-4.2-3-5.5-5.2c-1.3-2.2-2-4.8-2-7.6c0-2.8,0.7-5.2,2-7.5     c1.3-2.2,3.1-3.9,5.4-5.2c2.3-1.3,4.8-1.9,7.7-1.9c2.8,0,5.3,0.6,7.4,1.8s3.8,2.8,5,5c1.2,2.1,1.8,4.5,1.8,7.3     c0,0.5,0,1.1-0.1,1.6c-0.1,0.6-0.2,1.2-0.4,1.9L194.4,35v-6.1l20.3-0.1l-3.8,2.6c0-1.6-0.3-2.9-0.8-3.9c-0.5-1.1-1.1-1.9-2-2.4     c-0.9-0.6-2-0.9-3.3-0.9c-1.4,0-2.6,0.3-3.6,1c-1,0.7-1.8,1.6-2.4,2.7c-0.6,1.1-0.8,2.5-0.8,4.1s0.3,3,0.9,4.2     c0.6,1.2,1.4,2.1,2.5,2.7c1.1,0.6,2.4,0.9,3.9,0.9c1.3,0,2.6-0.2,3.7-0.7c1.1-0.5,2.1-1.2,2.9-2.2l4.9,4.8c-1.4,1.7-3,2.9-5,3.7     C209.9,46.2,207.7,46.6,205.4,46.7L205.4,46.7z"></path>			<path class="st0" d="M223.1,46V4.2h8.9V46H223.1z M241.6,46V30.1c0-1.4-0.5-2.6-1.4-3.5c-0.9-0.9-2.1-1.4-3.5-1.4     c-0.9,0-1.7,0.2-2.5,0.6c-0.7,0.4-1.3,1-1.7,1.7c-0.4,0.7-0.6,1.6-0.6,2.5l-3.4-1.7c0-2.2,0.5-4.1,1.4-5.8     c0.9-1.7,2.2-2.9,3.9-3.8c1.7-0.9,3.5-1.4,5.6-1.4s4.1,0.5,5.8,1.4s2.9,2.2,3.9,3.7c0.9,1.6,1.4,3.4,1.4,5.6V46L241.6,46     L241.6,46z"></path>			<path class="st0" d="M267.7,46.6c-2.5,0-4.8-0.6-6.9-1.9c-2-1.3-3.6-3-4.8-5.2c-1.2-2.2-1.8-4.7-1.8-7.5s0.6-5.3,1.8-7.5     c1.2-2.2,2.8-3.9,4.8-5.2s4.3-1.9,6.9-1.9c1.9,0,3.6,0.4,5.1,1.1c1.5,0.7,2.8,1.7,3.7,3c1,1.3,1.5,2.8,1.6,4.4v12.1     c-0.1,1.7-0.6,3.1-1.6,4.4c-0.9,1.3-2.2,2.3-3.7,3C271.3,46.2,269.6,46.6,267.7,46.6L267.7,46.6z M269.6,38.6     c1.9,0,3.4-0.6,4.5-1.8c1.1-1.2,1.7-2.8,1.7-4.8c0-1.3-0.3-2.4-0.8-3.4c-0.5-1-1.2-1.7-2.2-2.3c-1-0.6-2.1-0.8-3.3-0.8     s-2.3,0.3-3.2,0.8c-0.9,0.6-1.7,1.3-2.2,2.3c-0.6,1-0.8,2.1-0.8,3.4s0.3,2.4,0.8,3.4s1.3,1.8,2.2,2.3     C267.3,38.3,268.4,38.6,269.6,38.6L269.6,38.6z M275.4,46v-7.5l1.3-6.9l-1.3-6.7V18h8.7v28H275.4z"></path>			<path class="st0" d="M290.3,46V18h8.9v28H290.3z"></path>			<path class="st0" d="M148.7,100.2c-3,0-5.8-0.6-8.4-1.6c-2.6-1.1-4.8-2.6-6.8-4.5s-3.4-4.1-4.5-6.7c-1.1-2.5-1.6-5.3-1.6-8.2     c0-3,0.6-5.7,1.7-8.3c1.1-2.5,2.7-4.7,4.7-6.6c2-1.9,4.3-3.4,6.9-4.5c2.6-1.1,5.5-1.6,8.5-1.6c3.5,0,6.7,0.6,9.6,1.9     c2.9,1.3,5.3,3,7.1,5.3l-6.2,6.2c-1.3-1.7-2.8-3-4.6-3.8c-1.8-0.9-3.8-1.3-6-1.3c-2.4,0-4.5,0.5-6.4,1.6     c-1.9,1.1-3.3,2.5-4.4,4.4c-1.1,1.9-1.6,4.1-1.6,6.6c0,2.5,0.5,4.7,1.6,6.6s2.5,3.4,4.3,4.5c1.8,1.1,3.9,1.6,6.2,1.6     c2.3,0,4.3-0.5,6-1.4c1.7-0.9,3-2.2,3.9-3.9c0.9-1.7,1.4-3.8,1.4-6.2l6,4l-18.1-0.3v-7.7h21.4v1.3c0,4.8-0.9,8.9-2.6,12.3     c-1.7,3.3-4.2,5.9-7.3,7.6C156.3,99.4,152.7,100.2,148.7,100.2L148.7,100.2z"></path>			<path class="st0" d="M173.8,99.5V57.7h8.9v41.8H173.8z"></path>			<path class="st0" d="M202.4,100.2c-2.9,0-5.5-0.7-7.8-2c-2.3-1.3-4.1-3.1-5.5-5.3c-1.3-2.2-2-4.7-2-7.5c0-2.8,0.7-5.2,2-7.4     c1.3-2.2,3.1-3.9,5.4-5.2c2.3-1.3,4.9-1.9,7.9-1.9s5.5,0.6,7.8,1.9c2.3,1.3,4.1,3,5.5,5.2c1.3,2.2,2,4.7,2,7.4s-0.7,5.3-2,7.5     s-3.2,4-5.5,5.3S205.3,100.2,202.4,100.2L202.4,100.2z M202.4,92.1c1.2,0,2.3-0.3,3.3-0.8c1-0.5,1.7-1.3,2.2-2.3s0.8-2.2,0.8-3.5     s-0.3-2.4-0.8-3.4c-0.5-1-1.3-1.7-2.2-2.3c-0.9-0.6-2-0.8-3.3-0.8c-1.2,0-2.3,0.3-3.3,0.8c-1,0.6-1.7,1.3-2.2,2.3     c-0.5,1-0.8,2.1-0.8,3.3c0,1.3,0.3,2.5,0.8,3.5c0.5,1,1.3,1.8,2.2,2.3C200,91.8,201.1,92.1,202.4,92.1z"></path>			<path class="st0" d="M222,99.5V57.7h8.9v20.7l-1.4,6.7l1.3,6.9v7.5H222L222,99.5z M238.2,100.1c-1.9,0-3.7-0.4-5.2-1.2     c-1.6-0.8-2.8-1.8-3.8-3.2c-1-1.3-1.5-2.8-1.7-4.5V79.5c0.2-1.7,0.7-3.2,1.7-4.5s2.3-2.3,3.9-3s3.3-1.1,5.2-1.1     c2.6,0,4.9,0.6,7,1.9c2.1,1.3,3.7,3,4.9,5.2c1.2,2.2,1.8,4.7,1.8,7.5s-0.6,5.3-1.8,7.5c-1.2,2.2-2.8,3.9-4.9,5.2     S240.9,100.1,238.2,100.1L238.2,100.1z M236.6,92.1c1.2,0,2.3-0.3,3.2-0.8c0.9-0.6,1.7-1.3,2.2-2.3c0.6-1,0.8-2.1,0.8-3.4     c0-1.3-0.3-2.4-0.8-3.4c-0.6-1-1.3-1.8-2.2-2.3c-0.9-0.6-2-0.8-3.2-0.8c-1.2,0-2.3,0.3-3.3,0.8c-1,0.6-1.7,1.3-2.2,2.3     c-0.5,1-0.8,2.1-0.8,3.3c0,1.3,0.3,2.5,0.8,3.5s1.3,1.8,2.2,2.3C234.3,91.8,235.4,92.1,236.6,92.1z"></path>			<path class="st0" d="M267.9,100.1c-2.5,0-4.8-0.6-6.9-1.9c-2-1.3-3.6-3-4.8-5.2c-1.2-2.2-1.8-4.7-1.8-7.5s0.6-5.3,1.8-7.5     c1.2-2.2,2.8-3.9,4.8-5.2c2-1.2,4.3-1.9,6.9-1.9c1.9,0,3.6,0.4,5.1,1.1c1.5,0.7,2.8,1.7,3.7,3c1,1.3,1.5,2.8,1.6,4.4v12.1     c-0.1,1.7-0.6,3.1-1.6,4.4c-0.9,1.3-2.2,2.3-3.7,3C271.6,99.7,269.9,100.1,267.9,100.1L267.9,100.1z M269.8,92.1     c1.9,0,3.4-0.6,4.5-1.8c1.1-1.2,1.7-2.8,1.7-4.8c0-1.3-0.3-2.4-0.8-3.4c-0.5-1-1.2-1.7-2.2-2.3c-1-0.6-2.1-0.8-3.3-0.8     s-2.3,0.3-3.2,0.8c-0.9,0.6-1.7,1.3-2.2,2.3c-0.6,1-0.8,2.1-0.8,3.4c0,1.3,0.3,2.4,0.8,3.4s1.3,1.8,2.2,2.3     C267.5,91.8,268.6,92.1,269.8,92.1L269.8,92.1z M275.7,99.5V92l1.3-6.9l-1.3-6.7v-6.9h8.7v28H275.7z"></path>			<path class="st0" d="M290.5,99.5V57.7h8.9v41.8H290.5z"></path>			<rect x="290" y="4.5" class="st0" width="9.5" height="9.7"></rect>		</g>	</g></g></svg>